#N canvas -1 26 1920 984 10;
#X obj 356 2 adc~ 1 2;
#N canvas 0 0 450 250 (subpatch) 0;
#X array Buffer 48000 float 0;
#X coords 0 1 47999 -1 275 100 1 0 0;
#X restore 9 25 graph;
#X obj 331 171 *~;
#X obj 192 258 t f f, f 9;
#X obj 331 144 r~ ch1Out;
#X obj 392 143 r~ ch2Out;
#X obj 192 507 s~ ch1Out;
#X obj 251 507 s~ ch2Out;
#X obj 192 395 phasor~ 1;
#X obj 192 464 *~;
#X obj 192 346 /;
#X msg 192 324 1;
#X obj 192 371 * 1;
#X obj 46 147 tgl 15 0 empty empty Freeze -35 7 0 10 #fcfcfc #000000
#000000 0 1;
#X obj 192 485 tabread4~ Buffer;
#X obj 331 199 +~;
#X floatatom 332 120 5 0 0 0 - - - 0;
#X msg 374 75 1;
#X obj 374 97 -;
#X floatatom 375 118 5 0 0 0 - - - 0;
#X obj 392 170 *~;
#X obj 392 198 +~;
#X floatatom 192 235 9 0 0 0 - - - 0;
#X obj 328 27 tabwrite~ Buffer;
#X obj 46 165 bng 15 250 50 0 empty empty Write -35 7 0 10 #fcfcfc
#000000 #000000;
#X obj 68 147 hsl 180 15 0 16 0 0 empty empty size 4 8 0 10 #fcfcfc
#000000 #000000 0 1;
#X obj 86 -17 sel 1;
#X floatatom 252 147 5 0 16 0 - - - 0;
#X obj 3 -17 loadbang;
#X obj 331 225 dac~ 1 2;
#X obj 355 171 *~ 1;
#X obj 417 170 *~ 1;
#X obj 192 301 t b f;
#X obj 68 165 hsl 180 15 0 8 0 0 empty empty speed 4 8 0 10 #fcfcfc
#000000 #000000 0 1;
#X floatatom 252 165 5 0 8 0 - - - 0;
#X obj 192 212 t b f;
#X floatatom 243 369 5 0 0 0 - - - 0;
#X obj 68 183 hsl 180 15 0 1 0 0 empty empty start 4 8 0 10 #fcfcfc
#000000 #000000 0 1;
#X floatatom 253 183 5 0 1 0 - - - 0;
#X msg 58 -17 1;
#X msg 257 213 set \$1;
#X msg 264 234 set \$1;
#X obj 413 1 param.change;
#X obj 143 212 * 48000;
#X obj 530 55 samplerate~;
#X floatatom 530 78 7 0 0 0 - - - 0;
#X obj 530 29 bng 15 250 50 0 empty empty empty 17 7 0 10 #fcfcfc #000000
#000000;
#X obj 530 2 receive pd-dsp-started;
#X obj 192 281 / 48000;
#X obj 23 274 param.get 2;
#X obj 28 297 param.set 2;
#X obj 6 226 param.get 1;
#X obj 13 251 param.set 1;
#X obj 44 318 param.get 3;
#X obj 53 339 param.set 3;
#X obj 66 363 param.get 4;
#X obj 81 380 param.set 4;
#X obj 99 402 param.get 5;
#X obj 107 422 param.set 5;
#X msg 261 255 set \$1;
#X obj 46 183 bng 15 250 50 0 empty empty Reset -35 7 0 10 #fcfcfc
#000000 #000000;
#X obj 115 456 param.get 6;
#X obj 109 476 param.set 6;
#X msg 274 280 \; Buffer resize \$1;
#X obj 266 318 t b b;
#X obj 12 127 hsl 270 15 0 1 0 0 empty empty empty -2 -8 0 10 #fcfcfc
#000000 #000000 0 1;
#X obj 525 229 snapshot~;
#X obj 374 53 t b f f;
#X obj 525 206 metro 50;
#X obj 192 419 +~;
#X obj 192 441 wrap~;
#X obj 266 342 delay 2;
#X text 269 1 Freez;
#X connect 0 0 23 0;
#X connect 0 0 30 0;
#X connect 0 1 31 0;
#X connect 2 0 15 0;
#X connect 3 0 48 0;
#X connect 3 1 9 1;
#X connect 4 0 2 0;
#X connect 5 0 20 0;
#X connect 8 0 69 0;
#X connect 9 0 14 0;
#X connect 10 0 12 0;
#X connect 11 0 10 0;
#X connect 12 0 8 0;
#X connect 13 0 16 0;
#X connect 13 0 26 0;
#X connect 13 0 56 0;
#X connect 13 0 67 0;
#X connect 14 0 6 0;
#X connect 14 0 7 0;
#X connect 15 0 29 0;
#X connect 16 0 2 1;
#X connect 16 0 20 1;
#X connect 17 0 18 0;
#X connect 18 0 19 0;
#X connect 19 0 30 1;
#X connect 19 0 31 1;
#X connect 20 0 21 0;
#X connect 21 0 29 1;
#X connect 22 0 3 0;
#X connect 22 0 63 0;
#X connect 24 0 58 0;
#X connect 24 0 64 0;
#X connect 25 0 27 0;
#X connect 26 0 24 0;
#X connect 27 0 41 0;
#X connect 27 0 43 0;
#X connect 27 0 50 0;
#X connect 28 0 39 0;
#X connect 30 0 15 1;
#X connect 31 0 21 1;
#X connect 32 0 11 0;
#X connect 32 1 10 1;
#X connect 33 0 34 0;
#X connect 34 0 35 0;
#X connect 34 0 40 0;
#X connect 34 0 54 0;
#X connect 35 0 22 0;
#X connect 35 1 12 1;
#X connect 36 0 8 1;
#X connect 37 0 38 0;
#X connect 37 0 52 0;
#X connect 38 0 59 0;
#X connect 38 0 69 1;
#X connect 39 0 33 0;
#X connect 39 0 25 0;
#X connect 40 0 33 0;
#X connect 41 0 25 0;
#X connect 43 0 22 0;
#X connect 44 0 45 0;
#X connect 45 0 43 1;
#X connect 45 0 48 1;
#X connect 46 0 44 0;
#X connect 47 0 46 0;
#X connect 48 0 32 0;
#X connect 49 0 25 0;
#X connect 51 0 37 0;
#X connect 53 0 33 0;
#X connect 55 0 13 0;
#X connect 57 0 24 0;
#X connect 59 0 37 0;
#X connect 60 0 36 0;
#X connect 60 0 62 0;
#X connect 61 0 60 0;
#X connect 64 0 71 0;
#X connect 64 1 23 0;
#X connect 66 0 65 0;
#X connect 67 0 17 0;
#X connect 67 1 18 1;
#X connect 67 2 68 0;
#X connect 68 0 66 0;
#X connect 69 0 70 0;
#X connect 70 0 9 0;
#X connect 70 0 66 0;
#X connect 71 0 36 0;
#X coords 0 -1 1 1 301 201 2 2 2;
